# xmcd
#
# Track frame offsets: 
#        150
#        11502
#        22752
#        32610
#        45317
#        55725
#        67452
#        77540
#        89452
#        100665
#
# Disc length: 1493 seconds
#
# Revision: 8
# Processed by: cddbd v1.5.2PL0 Copyright (c) Steve Scherf et al.
# Submitted via: ExactAudioCopy v0.95b4
#
DISCID=6c05d30a
DTITLE=Drifters - Greatest Hits
DYEAR=1994
DGENRE=R&B
TTITLE0=Save The Last Dance For Me
TTITLE1=Saturday Night At The Movies
TTITLE2=When My Little Girl Is Smiling
TTITLE3=On Broadway
TTITLE4=Dance With Me
TTITLE5=Under The Boardwalk
TTITLE6=There Goes My Baby
TTITLE7=This Magic Moment
TTITLE8=If You Cry, True Love, True Love
TTITLE9=Up On The Roof
EXTD=
EXTT0=
EXTT1=
EXTT2=
EXTT3=
EXTT4=
EXTT5=
EXTT6=
EXTT7=
EXTT8=
EXTT9=
PLAYORDER=
